<?xml version='1.0' encoding='utf-8'?>
<svg xmlns="http://www.w3.org/2000/svg" class="diagram" version="1.1" height="281" width="200" viewBox="0 0 200.0 281.0">
<g transform="translate(8,16)">
<path d="M 0,0 L 184,0" fill="none" stroke="black"/>
<path d="M 0,32 L 48,32" fill="none" stroke="black"/>
<path d="M 48,32 L 152,32" fill="none" stroke="black"/>
<path d="M 152,32 L 184,32" fill="none" stroke="black"/>
<path d="M 16,64 L 48,64" fill="none" stroke="black"/>
<path d="M 48,64 L 72,64" fill="none" stroke="black"/>
<path d="M 128,64 L 152,64" fill="none" stroke="black"/>
<path d="M 152,64 L 176,64" fill="none" stroke="black"/>
<path d="M 16,96 L 48,96" fill="none" stroke="black"/>
<path d="M 48,96 L 72,96" fill="none" stroke="black"/>
<path d="M 128,96 L 144,96" fill="none" stroke="black"/>
<path d="M 144,96 L 160,96" fill="none" stroke="black"/>
<path d="M 160,96 L 176,96" fill="none" stroke="black"/>
<path d="M 48,128 L 80,128" fill="none" stroke="black"/>
<path d="M 104,128 L 144,128" fill="none" stroke="black"/>
<path d="M 64,160 L 80,160" fill="none" stroke="black"/>
<path d="M 80,160 L 104,160" fill="none" stroke="black"/>
<path d="M 104,160 L 120,160" fill="none" stroke="black"/>
<path d="M 64,192 L 96,192" fill="none" stroke="black"/>
<path d="M 96,192 L 120,192" fill="none" stroke="black"/>
<path d="M 0,224 L 96,224" fill="none" stroke="black"/>
<path d="M 96,224 L 160,224" fill="none" stroke="black"/>
<path d="M 160,224 L 184,224" fill="none" stroke="black"/>
<path d="M 0,256 L 184,256" fill="none" stroke="black"/>
<path d="M 0,0 L 0,32" fill="none" stroke="black"/>
<path d="M 0,224 L 0,256" fill="none" stroke="black"/>
<path d="M 16,64 L 16,96" fill="none" stroke="black"/>
<path d="M 48,32 L 48,64" fill="none" stroke="black"/>
<path d="M 48,96 L 48,128" fill="none" stroke="black"/>
<path d="M 64,160 L 64,192" fill="none" stroke="black"/>
<path d="M 72,64 L 72,96" fill="none" stroke="black"/>
<path d="M 80,128 L 80,160" fill="none" stroke="black"/>
<path d="M 96,192 L 96,224" fill="none" stroke="black"/>
<path d="M 104,128 L 104,160" fill="none" stroke="black"/>
<path d="M 120,160 L 120,192" fill="none" stroke="black"/>
<path d="M 128,64 L 128,96" fill="none" stroke="black"/>
<path d="M 144,96 L 144,128" fill="none" stroke="black"/>
<path d="M 152,32 L 152,64" fill="none" stroke="black"/>
<path d="M 160,96 L 160,224" fill="none" stroke="black"/>
<path d="M 176,64 L 176,96" fill="none" stroke="black"/>
<path d="M 184,0 L 184,32" fill="none" stroke="black"/>
<path d="M 184,224 L 184,256" fill="none" stroke="black"/>
<text text-anchor="middle" font-family="monospace" x="88" y="180" fill="black" font-size="1em">D</text>
<text text-anchor="middle" font-family="monospace" x="136" y="244" fill="black" font-size="1em">a</text>
<text text-anchor="middle" font-family="monospace" x="128" y="20" fill="black" font-size="1em">n</text>
<text text-anchor="middle" font-family="monospace" x="136" y="20" fill="black" font-size="1em">*</text>
<text text-anchor="middle" font-family="monospace" x="40" y="84" fill="black" font-size="1em">U</text>
<text text-anchor="middle" font-family="monospace" x="64" y="244" fill="black" font-size="1em">r</text>
<text text-anchor="middle" font-family="monospace" x="88" y="244" fill="black" font-size="1em">I</text>
<text text-anchor="middle" font-family="monospace" x="112" y="244" fill="black" font-size="1em">e</text>
<text text-anchor="middle" font-family="monospace" x="144" y="244" fill="black" font-size="1em">c</text>
<text text-anchor="middle" font-family="monospace" x="56" y="20" fill="black" font-size="1em">p</text>
<text text-anchor="middle" font-family="monospace" x="120" y="20" fill="black" font-size="1em">o</text>
<text text-anchor="middle" font-family="monospace" x="160" y="84" fill="black" font-size="1em">P</text>
<text text-anchor="middle" font-family="monospace" x="152" y="244" fill="black" font-size="1em">e</text>
<text text-anchor="middle" font-family="monospace" x="48" y="84" fill="black" font-size="1em">I</text>
<text text-anchor="middle" font-family="monospace" x="168" y="84" fill="black" font-size="1em">*</text>
<text text-anchor="middle" font-family="monospace" x="104" y="244" fill="black" font-size="1em">t</text>
<text text-anchor="middle" font-family="monospace" x="32" y="84" fill="black" font-size="1em">Q</text>
<text text-anchor="middle" font-family="monospace" x="64" y="84" fill="black" font-size="1em">*</text>
<text text-anchor="middle" font-family="monospace" x="32" y="244" fill="black" font-size="1em">e</text>
<text text-anchor="middle" font-family="monospace" x="56" y="244" fill="black" font-size="1em">o</text>
<text text-anchor="middle" font-family="monospace" x="72" y="20" fill="black" font-size="1em">l</text>
<text text-anchor="middle" font-family="monospace" x="96" y="20" fill="black" font-size="1em">a</text>
<text text-anchor="middle" font-family="monospace" x="104" y="20" fill="black" font-size="1em">t</text>
<text text-anchor="middle" font-family="monospace" x="48" y="20" fill="black" font-size="1em">A</text>
<text text-anchor="middle" font-family="monospace" x="48" y="244" fill="black" font-size="1em">w</text>
<text text-anchor="middle" font-family="monospace" x="96" y="244" fill="black" font-size="1em">n</text>
<text text-anchor="middle" font-family="monospace" x="96" y="180" fill="black" font-size="1em">P</text>
<text text-anchor="middle" font-family="monospace" x="40" y="244" fill="black" font-size="1em">t</text>
<text text-anchor="middle" font-family="monospace" x="64" y="20" fill="black" font-size="1em">p</text>
<text text-anchor="middle" font-family="monospace" x="88" y="20" fill="black" font-size="1em">c</text>
<text text-anchor="middle" font-family="monospace" x="80" y="180" fill="black" font-size="1em">U</text>
<text text-anchor="middle" font-family="monospace" x="152" y="84" fill="black" font-size="1em">T</text>
<text text-anchor="middle" font-family="monospace" x="72" y="244" fill="black" font-size="1em">k</text>
<text text-anchor="middle" font-family="monospace" x="112" y="20" fill="black" font-size="1em">i</text>
<text text-anchor="middle" font-family="monospace" x="56" y="84" fill="black" font-size="1em">C</text>
<text text-anchor="middle" font-family="monospace" x="144" y="84" fill="black" font-size="1em">C</text>
<text text-anchor="middle" font-family="monospace" x="120" y="244" fill="black" font-size="1em">r</text>
<text text-anchor="middle" font-family="monospace" x="128" y="244" fill="black" font-size="1em">f</text>
<text text-anchor="middle" font-family="monospace" x="80" y="20" fill="black" font-size="1em">i</text>
<text text-anchor="middle" font-family="monospace" x="136" y="84" fill="black" font-size="1em">S</text>
<text text-anchor="middle" font-family="monospace" x="24" y="244" fill="black" font-size="1em">N</text>
</g>
</svg>
