<?xml version='1.0' encoding='utf-8'?>

<svg xmlns="http://www.w3.org/2000/svg" class="diagram" version="1.1" height="281" width="224">
  <g transform="translate(8,16)">
    <path d="M 16,0 L 200,0" fill="none" stroke="black"/>
    <path d="M 16,32 L 32,32" fill="none" stroke="black"/>
    <path d="M 32,32 L 96,32" fill="none" stroke="black"/>
    <path d="M 96,32 L 136,32" fill="none" stroke="black"/>
    <path d="M 136,32 L 176,32" fill="none" stroke="black"/>
    <path d="M 176,32 L 200,32" fill="none" stroke="black"/>
    <path d="M 0,64 L 32,64" fill="none" stroke="black"/>
    <path d="M 32,64 L 56,64" fill="none" stroke="black"/>
    <path d="M 72,64 L 96,64" fill="none" stroke="black"/>
    <path d="M 96,64 L 120,64" fill="none" stroke="black"/>
    <path d="M 160,64 L 176,64" fill="none" stroke="black"/>
    <path d="M 176,64 L 208,64" fill="none" stroke="black"/>
    <path d="M 0,96 L 32,96" fill="none" stroke="black"/>
    <path d="M 32,96 L 56,96" fill="none" stroke="black"/>
    <path d="M 72,96 L 96,96" fill="none" stroke="black"/>
    <path d="M 96,96 L 120,96" fill="none" stroke="black"/>
    <path d="M 160,96 L 184,96" fill="none" stroke="black"/>
    <path d="M 184,96 L 208,96" fill="none" stroke="black"/>
    <path d="M 32,128 L 96,128" fill="none" stroke="black"/>
    <path d="M 96,128 L 120,128" fill="none" stroke="black"/>
    <path d="M 104,160 L 120,160" fill="none" stroke="black"/>
    <path d="M 120,160 L 136,160" fill="none" stroke="black"/>
    <path d="M 136,160 L 160,160" fill="none" stroke="black"/>
    <path d="M 104,192 L 136,192" fill="none" stroke="black"/>
    <path d="M 136,192 L 160,192" fill="none" stroke="black"/>
    <path d="M 16,224 L 136,224" fill="none" stroke="black"/>
    <path d="M 136,224 L 184,224" fill="none" stroke="black"/>
    <path d="M 184,224 L 200,224" fill="none" stroke="black"/>
    <path d="M 16,256 L 200,256" fill="none" stroke="black"/>
    <path d="M 0,64 L 0,96" fill="none" stroke="black"/>
    <path d="M 16,0 L 16,32" fill="none" stroke="black"/>
    <path d="M 16,224 L 16,256" fill="none" stroke="black"/>
    <path d="M 32,32 L 32,64" fill="none" stroke="black"/>
    <path d="M 32,96 L 32,128" fill="none" stroke="black"/>
    <path d="M 56,64 L 56,96" fill="none" stroke="black"/>
    <path d="M 72,64 L 72,96" fill="none" stroke="black"/>
    <path d="M 96,32 L 96,64" fill="none" stroke="black"/>
    <path d="M 96,96 L 96,128" fill="none" stroke="black"/>
    <path d="M 104,160 L 104,192" fill="none" stroke="black"/>
    <path d="M 120,64 L 120,96" fill="none" stroke="black"/>
    <path d="M 120,128 L 120,160" fill="none" stroke="black"/>
    <path d="M 136,32 L 136,160" fill="none" stroke="black"/>
    <path d="M 136,192 L 136,224" fill="none" stroke="black"/>
    <path d="M 160,64 L 160,96" fill="none" stroke="black"/>
    <path d="M 160,96 L 160,160" fill="none" stroke="black"/>
    <path d="M 160,160 L 160,192" fill="none" stroke="black"/>
    <path d="M 176,32 L 176,64" fill="none" stroke="black"/>
    <path d="M 184,96 L 184,224" fill="none" stroke="black"/>
    <path d="M 200,0 L 200,32" fill="none" stroke="black"/>
    <path d="M 200,224 L 200,256" fill="none" stroke="black"/>
    <path d="M 208,64 L 208,96" fill="none" stroke="black"/>
    <text text-anchor="middle" font-family="monospace" x="112" y="20" fill="black" font-size="1em">c</text>
    <text text-anchor="middle" font-family="monospace" x="184" y="84" fill="black" font-size="1em">T</text>
    <text text-anchor="middle" font-family="monospace" x="144" y="244" fill="black" font-size="1em">f</text>
    <text text-anchor="middle" font-family="monospace" x="40" y="244" fill="black" font-size="1em">N</text>
    <text text-anchor="middle" font-family="monospace" x="136" y="244" fill="black" font-size="1em">r</text>
    <text text-anchor="middle" font-family="monospace" x="104" y="20" fill="black" font-size="1em">i</text>
    <text text-anchor="middle" font-family="monospace" x="24" y="84" fill="black" font-size="1em">U</text>
    <text text-anchor="middle" font-family="monospace" x="40" y="84" fill="black" font-size="1em">C</text>
    <text text-anchor="middle" font-family="monospace" x="112" y="84" fill="black" font-size="1em">*</text>
    <text text-anchor="middle" font-family="monospace" x="56" y="244" fill="black" font-size="1em">t</text>
    <text text-anchor="middle" font-family="monospace" x="64" y="244" fill="black" font-size="1em">w</text>
    <text text-anchor="middle" font-family="monospace" x="104" y="244" fill="black" font-size="1em">I</text>
    <text text-anchor="middle" font-family="monospace" x="152" y="244" fill="black" font-size="1em">a</text>
    <text text-anchor="middle" font-family="monospace" x="88" y="20" fill="black" font-size="1em">p</text>
    <text text-anchor="middle" font-family="monospace" x="144" y="20" fill="black" font-size="1em">o</text>
    <text text-anchor="middle" font-family="monospace" x="152" y="20" fill="black" font-size="1em">n</text>
    <text text-anchor="middle" font-family="monospace" x="96" y="84" fill="black" font-size="1em">P</text>
    <text text-anchor="middle" font-family="monospace" x="192" y="84" fill="black" font-size="1em">P</text>
    <text text-anchor="middle" font-family="monospace" x="200" y="84" fill="black" font-size="1em">*</text>
    <text text-anchor="middle" font-family="monospace" x="128" y="244" fill="black" font-size="1em">e</text>
    <text text-anchor="middle" font-family="monospace" x="160" y="244" fill="black" font-size="1em">c</text>
    <text text-anchor="middle" font-family="monospace" x="96" y="20" fill="black" font-size="1em">l</text>
    <text text-anchor="middle" font-family="monospace" x="16" y="84" fill="black" font-size="1em">Q</text>
    <text text-anchor="middle" font-family="monospace" x="48" y="84" fill="black" font-size="1em">*</text>
    <text text-anchor="middle" font-family="monospace" x="168" y="84" fill="black" font-size="1em">S</text>
    <text text-anchor="middle" font-family="monospace" x="168" y="244" fill="black" font-size="1em">e</text>
    <text text-anchor="middle" font-family="monospace" x="88" y="244" fill="black" font-size="1em">k</text>
    <text text-anchor="middle" font-family="monospace" x="112" y="244" fill="black" font-size="1em">n</text>
    <text text-anchor="middle" font-family="monospace" x="72" y="20" fill="black" font-size="1em">A</text>
    <text text-anchor="middle" font-family="monospace" x="136" y="20" fill="black" font-size="1em">i</text>
    <text text-anchor="middle" font-family="monospace" x="80" y="84" fill="black" font-size="1em">U</text>
    <text text-anchor="middle" font-family="monospace" x="128" y="180" fill="black" font-size="1em">D</text>
    <text text-anchor="middle" font-family="monospace" x="128" y="20" fill="black" font-size="1em">t</text>
    <text text-anchor="middle" font-family="monospace" x="32" y="84" fill="black" font-size="1em">I</text>
    <text text-anchor="middle" font-family="monospace" x="104" y="84" fill="black" font-size="1em">O</text>
    <text text-anchor="middle" font-family="monospace" x="48" y="244" fill="black" font-size="1em">e</text>
    <text text-anchor="middle" font-family="monospace" x="120" y="244" fill="black" font-size="1em">t</text>
    <text text-anchor="middle" font-family="monospace" x="120" y="20" fill="black" font-size="1em">a</text>
    <text text-anchor="middle" font-family="monospace" x="160" y="20" fill="black" font-size="1em">*</text>
    <text text-anchor="middle" font-family="monospace" x="120" y="180" fill="black" font-size="1em">U</text>
    <text text-anchor="middle" font-family="monospace" x="72" y="244" fill="black" font-size="1em">o</text>
    <text text-anchor="middle" font-family="monospace" x="80" y="244" fill="black" font-size="1em">r</text>
    <text text-anchor="middle" font-family="monospace" x="80" y="20" fill="black" font-size="1em">p</text>
    <text text-anchor="middle" font-family="monospace" x="88" y="84" fill="black" font-size="1em">D</text>
    <text text-anchor="middle" font-family="monospace" x="176" y="84" fill="black" font-size="1em">C</text>
    <text text-anchor="middle" font-family="monospace" x="136" y="180" fill="black" font-size="1em">P</text>
  </g>
</svg>
