<?xml version='1.0' encoding='utf-8'?>

<svg xmlns="http://www.w3.org/2000/svg" class="diagram" version="1.1" height="153" width="280">
  <g transform="translate(8,16)">
    <path d="M 144,16 L 168,16" fill="none" stroke="black"/>
    <path d="M 216,16 L 256,16" fill="none" stroke="black"/>
    <path d="M 16,64 L 264,64" fill="none" stroke="black"/>
    <path d="M 16,96 L 264,96" fill="none" stroke="black"/>
    <path d="M 16,128 L 96,128" fill="none" stroke="black"/>
    <path d="M 168,128 L 264,128" fill="none" stroke="black"/>
    <path d="M 16,64 L 16,96" fill="none" stroke="black"/>
    <path d="M 72,32 L 72,48" fill="none" stroke="black"/>
    <path d="M 144,16 L 144,48" fill="none" stroke="black"/>
    <path d="M 256,16 L 256,48" fill="none" stroke="black"/>
    <path d="M 264,64 L 264,96" fill="none" stroke="black"/>
    <polygon points="24.000000,128.000000 12.000000,122.400002 12.000000,133.600006" transform="rotate(180.000000, 16.000000, 128.000000)" fill="black"/>
    <path d="M 72,48 L 72,56" fill="none" stroke="black"/>
    <polygon points="88.000000,48.000000 76.000000,42.400002 76.000000,53.599998" transform="rotate(90.000000, 72.000000, 48.000000)" fill="black"/>
    <path d="M 144,48 L 144,56" fill="none" stroke="black"/>
    <polygon points="160.000000,48.000000 148.000000,42.400002 148.000000,53.599998" transform="rotate(90.000000, 144.000000, 48.000000)" fill="black"/>
    <path d="M 256,48 L 256,56" fill="none" stroke="black"/>
    <polygon points="272.000000,48.000000 260.000000,42.400002 260.000000,53.599998" transform="rotate(90.000000, 256.000000, 48.000000)" fill="black"/>
    <polygon points="272.000000,128.000000 260.000000,122.400002 260.000000,133.600006" transform="rotate(0.000000, 264.000000, 128.000000)" fill="black"/>
    <circle cx="72" cy="80" r="6" fill="black" stroke="black"/>
    <circle cx="80" cy="80" r="6" fill="black" stroke="black"/>
    <text text-anchor="middle" font-family="monospace" x="136" y="84" fill="black" font-size="1em">|</text>
    <text text-anchor="middle" font-family="monospace" x="112" y="132" fill="black" font-size="1em">P</text>
    <text text-anchor="middle" font-family="monospace" x="64" y="20" fill="black" font-size="1em">s</text>
    <text text-anchor="middle" font-family="monospace" x="112" y="84" fill="black" font-size="1em">P</text>
    <text text-anchor="middle" font-family="monospace" x="160" y="84" fill="black" font-size="1em">r</text>
    <text text-anchor="middle" font-family="monospace" x="184" y="84" fill="black" font-size="1em">o</text>
    <text text-anchor="middle" font-family="monospace" x="96" y="4" fill="black" font-size="1em">a</text>
    <text text-anchor="middle" font-family="monospace" x="40" y="20" fill="black" font-size="1em">d</text>
    <text text-anchor="middle" font-family="monospace" x="56" y="84" fill="black" font-size="1em">|</text>
    <text text-anchor="middle" font-family="monospace" x="144" y="132" fill="black" font-size="1em">T</text>
    <text text-anchor="middle" font-family="monospace" x="152" y="132" fill="black" font-size="1em">U</text>
    <text text-anchor="middle" font-family="monospace" x="48" y="4" fill="black" font-size="1em">d</text>
    <text text-anchor="middle" font-family="monospace" x="184" y="20" fill="black" font-size="1em">M</text>
    <text text-anchor="middle" font-family="monospace" x="88" y="4" fill="black" font-size="1em">n</text>
    <text text-anchor="middle" font-family="monospace" x="48" y="20" fill="black" font-size="1em">e</text>
    <text text-anchor="middle" font-family="monospace" x="32" y="84" fill="black" font-size="1em">I</text>
    <text text-anchor="middle" font-family="monospace" x="120" y="84" fill="black" font-size="1em">L</text>
    <text text-anchor="middle" font-family="monospace" x="232" y="84" fill="black" font-size="1em">a</text>
    <text text-anchor="middle" font-family="monospace" x="248" y="84" fill="black" font-size="1em">a</text>
    <text text-anchor="middle" font-family="monospace" x="16" y="4" fill="black" font-size="1em">y</text>
    <text text-anchor="middle" font-family="monospace" x="56" y="4" fill="black" font-size="1em">i</text>
    <text text-anchor="middle" font-family="monospace" x="120" y="132" fill="black" font-size="1em">L</text>
    <text text-anchor="middle" font-family="monospace" x="192" y="20" fill="black" font-size="1em">P</text>
    <text text-anchor="middle" font-family="monospace" x="200" y="84" fill="black" font-size="1em">o</text>
    <text text-anchor="middle" font-family="monospace" x="8" y="4" fill="black" font-size="1em">n</text>
    <text text-anchor="middle" font-family="monospace" x="72" y="4" fill="black" font-size="1em">i</text>
    <text text-anchor="middle" font-family="monospace" x="24" y="20" fill="black" font-size="1em">e</text>
    <text text-anchor="middle" font-family="monospace" x="96" y="84" fill="black" font-size="1em">|</text>
    <text text-anchor="middle" font-family="monospace" x="152" y="84" fill="black" font-size="1em">p</text>
    <text text-anchor="middle" font-family="monospace" x="168" y="84" fill="black" font-size="1em">o</text>
    <text text-anchor="middle" font-family="monospace" x="176" y="84" fill="black" font-size="1em">t</text>
    <text text-anchor="middle" font-family="monospace" x="208" y="84" fill="black" font-size="1em">l</text>
    <text text-anchor="middle" font-family="monospace" x="0" y="4" fill="black" font-size="1em">a</text>
    <text text-anchor="middle" font-family="monospace" x="40" y="4" fill="black" font-size="1em">d</text>
    <text text-anchor="middle" font-family="monospace" x="104" y="4" fill="black" font-size="1em">l</text>
    <text text-anchor="middle" font-family="monospace" x="16" y="20" fill="black" font-size="1em">h</text>
    <text text-anchor="middle" font-family="monospace" x="200" y="20" fill="black" font-size="1em">S</text>
    <text text-anchor="middle" font-family="monospace" x="192" y="84" fill="black" font-size="1em">c</text>
    <text text-anchor="middle" font-family="monospace" x="224" y="84" fill="black" font-size="1em">d</text>
    <text text-anchor="middle" font-family="monospace" x="128" y="132" fill="black" font-size="1em">P</text>
    <text text-anchor="middle" font-family="monospace" x="32" y="4" fill="black" font-size="1em">a</text>
    <text text-anchor="middle" font-family="monospace" x="80" y="4" fill="black" font-size="1em">o</text>
    <text text-anchor="middle" font-family="monospace" x="56" y="20" fill="black" font-size="1em">r</text>
    <text text-anchor="middle" font-family="monospace" x="40" y="84" fill="black" font-size="1em">P</text>
    <text text-anchor="middle" font-family="monospace" x="240" y="84" fill="black" font-size="1em">t</text>
    <text text-anchor="middle" font-family="monospace" x="136" y="132" fill="black" font-size="1em">M</text>
    <text text-anchor="middle" font-family="monospace" x="64" y="4" fill="black" font-size="1em">t</text>
    <text text-anchor="middle" font-family="monospace" x="32" y="20" fill="black" font-size="1em">a</text>
  </g>
</svg>
