<?xml version='1.0' encoding='utf-8'?>
<svg xmlns="http://www.w3.org/2000/svg" class="diagram" version="1.1" height="137" width="464" viewBox="0 0 464.0 137.0">
<g transform="translate(8,16)">
<path d="M 56,16 L 408,16" fill="none" stroke="black"/>
<path d="M 176,32 L 176,48" fill="none" stroke="black"/>
<path d="M 248,32 L 248,96" fill="none" stroke="black"/>
<path d="M 296,32 L 296,64" fill="none" stroke="black"/>
<path d="M 176,24 L 176,32" fill="none" stroke="black"/>
<path d="M 248,24 L 248,32" fill="none" stroke="black"/>
<path d="M 296,24 L 296,32" fill="none" stroke="black"/>
<polygon points="64.000000,16.000000 52.000000,10.400000 52.000000,21.600000" transform="rotate(180.000000, 56.000000, 16.000000)" fill="black"/>
<polygon points="184.000000,48.000000 172.000000,42.400002 172.000000,53.599998" transform="rotate(90.000000, 176.000000, 48.000000)" fill="black"/>
<polygon points="256.000000,96.000000 244.000000,90.400002 244.000000,101.599998" transform="rotate(90.000000, 248.000000, 96.000000)" fill="black"/>
<polygon points="304.000000,64.000000 292.000000,58.400002 292.000000,69.599998" transform="rotate(90.000000, 296.000000, 64.000000)" fill="black"/>
<polygon points="416.000000,16.000000 404.000000,10.400000 404.000000,21.600000" transform="rotate(0.000000, 408.000000, 16.000000)" fill="black"/>
<text text-anchor="middle" font-family="monospace" x="400" y="4" fill="black" font-size="1em">_</text>
<text text-anchor="middle" font-family="monospace" x="416" y="4" fill="black" font-size="1em">L</text>
<text text-anchor="middle" font-family="monospace" x="192" y="68" fill="black" font-size="1em">M</text>
<text text-anchor="middle" font-family="monospace" x="288" y="84" fill="black" font-size="1em">O</text>
<text text-anchor="middle" font-family="monospace" x="352" y="84" fill="black" font-size="1em">E</text>
<text text-anchor="middle" font-family="monospace" x="232" y="116" fill="black" font-size="1em">P</text>
<text text-anchor="middle" font-family="monospace" x="272" y="116" fill="black" font-size="1em">U</text>
<text text-anchor="middle" font-family="monospace" x="56" y="4" fill="black" font-size="1em">N</text>
<text text-anchor="middle" font-family="monospace" x="80" y="4" fill="black" font-size="1em">L</text>
<text text-anchor="middle" font-family="monospace" x="320" y="84" fill="black" font-size="1em">_</text>
<text text-anchor="middle" font-family="monospace" x="336" y="84" fill="black" font-size="1em">I</text>
<text text-anchor="middle" font-family="monospace" x="344" y="84" fill="black" font-size="1em">Z</text>
<text text-anchor="middle" font-family="monospace" x="88" y="4" fill="black" font-size="1em">P</text>
<text text-anchor="middle" font-family="monospace" x="96" y="4" fill="black" font-size="1em">M</text>
<text text-anchor="middle" font-family="monospace" x="392" y="4" fill="black" font-size="1em">X</text>
<text text-anchor="middle" font-family="monospace" x="424" y="4" fill="black" font-size="1em">P</text>
<text text-anchor="middle" font-family="monospace" x="448" y="4" fill="black" font-size="1em">U</text>
<text text-anchor="middle" font-family="monospace" x="152" y="68" fill="black" font-size="1em">E</text>
<text text-anchor="middle" font-family="monospace" x="304" y="84" fill="black" font-size="1em">E</text>
<text text-anchor="middle" font-family="monospace" x="64" y="4" fill="black" font-size="1em">_</text>
<text text-anchor="middle" font-family="monospace" x="384" y="4" fill="black" font-size="1em">A</text>
<text text-anchor="middle" font-family="monospace" x="128" y="68" fill="black" font-size="1em">B</text>
<text text-anchor="middle" font-family="monospace" x="312" y="84" fill="black" font-size="1em">D</text>
<text text-anchor="middle" font-family="monospace" x="240" y="116" fill="black" font-size="1em">L</text>
<text text-anchor="middle" font-family="monospace" x="264" y="116" fill="black" font-size="1em">T</text>
<text text-anchor="middle" font-family="monospace" x="72" y="4" fill="black" font-size="1em">P</text>
<text text-anchor="middle" font-family="monospace" x="104" y="4" fill="black" font-size="1em">T</text>
<text text-anchor="middle" font-family="monospace" x="432" y="4" fill="black" font-size="1em">M</text>
<text text-anchor="middle" font-family="monospace" x="144" y="68" fill="black" font-size="1em">S</text>
<text text-anchor="middle" font-family="monospace" x="184" y="68" fill="black" font-size="1em">P</text>
<text text-anchor="middle" font-family="monospace" x="200" y="68" fill="black" font-size="1em">T</text>
<text text-anchor="middle" font-family="monospace" x="296" y="84" fill="black" font-size="1em">B</text>
<text text-anchor="middle" font-family="monospace" x="248" y="116" fill="black" font-size="1em">P</text>
<text text-anchor="middle" font-family="monospace" x="40" y="4" fill="black" font-size="1em">M</text>
<text text-anchor="middle" font-family="monospace" x="48" y="4" fill="black" font-size="1em">I</text>
<text text-anchor="middle" font-family="monospace" x="160" y="68" fill="black" font-size="1em">_</text>
<text text-anchor="middle" font-family="monospace" x="328" y="84" fill="black" font-size="1em">S</text>
<text text-anchor="middle" font-family="monospace" x="112" y="4" fill="black" font-size="1em">U</text>
<text text-anchor="middle" font-family="monospace" x="440" y="4" fill="black" font-size="1em">T</text>
<text text-anchor="middle" font-family="monospace" x="136" y="68" fill="black" font-size="1em">A</text>
<text text-anchor="middle" font-family="monospace" x="208" y="68" fill="black" font-size="1em">U</text>
<text text-anchor="middle" font-family="monospace" x="280" y="84" fill="black" font-size="1em">R</text>
<text text-anchor="middle" font-family="monospace" x="256" y="116" fill="black" font-size="1em">M</text>
<text text-anchor="middle" font-family="monospace" x="376" y="4" fill="black" font-size="1em">M</text>
<text text-anchor="middle" font-family="monospace" x="408" y="4" fill="black" font-size="1em">P</text>
<text text-anchor="middle" font-family="monospace" x="168" y="68" fill="black" font-size="1em">P</text>
<text text-anchor="middle" font-family="monospace" x="176" y="68" fill="black" font-size="1em">L</text>
<text text-anchor="middle" font-family="monospace" x="272" y="84" fill="black" font-size="1em">P</text>
</g>
</svg>
